<svg width="1367" height="266" viewBox="0 0 1367 266" fill="none" xmlns="http://www.w3.org/2000/svg">
<path d="M65.8139 82.7067V162.614L91.7864 162.869V191.625H56.484C39.0849 191.625 35.3025 186.535 35.5546 169.485L35.8068 82.7067L14.3731 82.9612V53.4412H36.3111V5.08964H66.0661L66.3182 53.4412H92.7951V82.9612L65.8139 82.7067ZM97.8383 88.0508V48.3516H71.3614L71.1093 0H31.2679V2.29034L21.938 19.8496V48.3516H9.32994V50.6419L0 68.2012V106.374C6.05185 106.374 14.3732 106.119 21.4337 106.119C21.4337 134.876 21.1815 159.815 21.1815 188.571C20.6772 208.93 25.2161 215.037 46.3975 215.037H85.9868L95.5689 196.715H96.8297V157.779H83.9695C79.4306 157.779 75.1439 157.524 70.8571 157.524V106.374H86.9954L96.5775 88.0508H97.8383Z" fill="black"/>
<path d="M190.777 126.478V84.2336H161.022V191.625H129.25V53.4412H200.611C212.715 53.4412 222.802 62.8571 222.802 75.0722V126.478H190.777ZM227.845 131.567V75.0722C227.845 59.8033 215.489 48.3516 200.611 48.3516H124.207V50.6419L114.877 68.2012V215.037H155.223L164.805 196.715H166.065V107.646H176.404V149.89H217.002L226.584 131.567H227.845Z" fill="black"/>
<path d="M262.08 191.625V53.4412H294.356V191.625H262.08ZM294.104 23.4124C294.104 31.8103 287.548 38.4268 279.226 38.4268C270.905 38.4268 264.349 31.8103 264.349 23.4124C264.349 15.0144 270.905 8.14343 279.226 8.14343C287.548 8.14343 294.104 15.0144 294.104 23.4124ZM299.399 196.715V48.3516H287.8L293.6 37.6634C297.13 34.1006 299.147 29.011 299.147 23.4124C299.147 12.2151 290.574 3.05378 279.226 3.05378C269.392 3.05378 261.827 9.9248 259.81 18.8317L252.75 31.8103L252.245 33.0827C250.732 35.882 249.976 39.1903 249.976 42.4985C249.976 47.5882 251.489 51.9144 254.515 55.2226L247.706 68.2012V215.037H288.556L298.138 196.715H299.399Z" fill="black"/>
<path d="M320.591 76.3446L320.086 76.8536L319.834 77.617C318.069 81.1798 317.06 85.7605 317.06 91.1046V189.08C317.06 203.84 329.164 215.037 343.537 215.037H417.925L427.507 196.715H428.768V155.743H367.493V105.356H382.37V125.46H417.925L427.507 107.137H428.768V71.0005C428.768 56.2406 424.481 48.3516 406.073 48.3516H347.32C336.729 48.3516 329.668 53.4412 327.147 63.3661L320.338 76.3446H320.591ZM353.624 191.625C341.52 191.625 331.434 182.209 331.434 169.994V72.0184C331.434 59.8033 337.485 53.4412 347.32 53.4412H406.073C420.446 53.4412 423.724 59.5488 423.724 71.0005V102.047H396.743V81.9432H362.449V160.833H423.724V191.625H353.624Z" fill="black"/>
<path d="M564.018 126.223V75.0722C564.018 59.8033 551.662 48.3516 536.785 48.3516H456.346V50.6419L447.016 68.2012V192.134C447.016 207.148 456.85 215.037 469.962 215.037H547.88L557.462 196.715H558.723L558.471 156.761H551.158L557.966 144.546C561.749 140.474 564.018 134.367 564.018 126.223ZM558.975 126.223C558.975 138.438 552.923 144.8 543.089 144.8H493.918V161.851H553.427L553.68 191.625H480.049C469.458 191.625 461.389 185.263 461.389 173.048V53.4412H536.785C548.889 53.4412 558.975 62.8571 558.975 75.0722V126.223ZM526.951 84.2336H493.161V117.062H526.951V84.2336ZM512.325 107.9V111.972H498.204V107.9H512.325Z" fill="black"/>
<path d="M633.455 185.263V161.342C633.455 154.725 628.664 149.89 622.108 149.89H599.161C593.109 149.89 588.57 153.962 587.814 159.815L579.745 175.084C578.988 176.611 578.484 178.392 578.484 180.428V204.349C578.484 210.457 583.023 215.037 589.075 215.037H612.021C616.056 215.037 619.586 213.002 621.351 209.693L629.42 194.17C631.942 192.134 633.455 189.08 633.455 185.263ZM628.412 185.263C628.412 188.826 625.638 191.625 622.108 191.625H599.161C595.631 191.625 592.857 188.826 592.857 185.263V161.342C592.857 157.779 595.631 154.98 599.161 154.98H622.108C625.638 154.98 628.412 157.779 628.412 161.342V185.263Z" fill="black"/>
<path d="M656.969 76.3446L656.465 76.8536L656.212 77.617C654.447 81.1798 653.439 85.7605 653.439 91.1046V189.08C653.439 203.84 665.542 215.037 679.915 215.037H755.564L765.146 196.715H766.407V0H723.791V2.29034L714.461 19.8496V48.3516H683.698C673.107 48.3516 666.047 53.4412 663.525 63.3661L656.717 76.3446H656.969ZM690.002 191.625C677.898 191.625 667.812 182.209 667.812 169.994V72.0184C667.812 59.8033 673.864 53.4412 683.698 53.4412H728.835V5.08964H761.363V191.625H690.002ZM729.591 81.9432H699.836V161.596H729.591V81.9432ZM715.218 105.356V156.507H704.879V105.356H715.218Z" fill="black"/>
<path d="M900.396 126.223V75.0722C900.396 59.8033 888.041 48.3516 873.163 48.3516H792.724V50.6419L783.394 68.2012V192.134C783.394 207.148 793.228 215.037 806.341 215.037H884.258L893.84 196.715H895.101L894.849 156.761H887.536L894.345 144.546C898.127 140.474 900.396 134.367 900.396 126.223ZM895.353 126.223C895.353 138.438 889.301 144.8 879.467 144.8H830.296V161.851H889.806L890.058 191.625H816.427C805.836 191.625 797.767 185.263 797.767 173.048V53.4412H873.163C885.267 53.4412 895.353 62.8571 895.353 75.0722V126.223ZM863.329 84.2336H829.539V117.062H863.329V84.2336ZM848.704 107.9V111.972H834.583V107.9H848.704Z" fill="black"/>
<path d="M1026.32 187.553C1028.84 185.263 1031.36 173.302 1031.36 164.904V125.205C1031.36 112.99 1026.32 105.356 1017.74 102.556L1025.06 89.0687H1026.32L1026.07 48.3516H951.426C939.826 48.3516 930.748 54.2047 928.227 65.6564L921.166 79.1439C919.401 82.4522 918.392 86.2694 918.392 91.1046V134.621C918.392 145.309 921.923 153.453 932.766 155.743L920.914 175.593V215.037H994.041C1004.13 215.037 1013.2 209.439 1017.74 201.041L1026.32 187.553ZM1026.32 169.994C1026.32 182.209 1016.23 191.625 1004.13 191.625H935.287V160.833H994.293V135.13H951.678C941.087 135.13 932.766 128.259 932.766 115.535V72.0184C932.766 59.8033 940.835 53.4412 951.426 53.4412H1021.02L1021.27 83.9791H965.294V106.628H1010.43C1020.27 106.628 1026.32 112.99 1026.32 125.205V169.994Z" fill="black"/>
<path d="M1069.78 191.625V53.4412H1102.06V191.625H1069.78ZM1101.81 23.4124C1101.81 31.8103 1095.25 38.4268 1086.93 38.4268C1078.61 38.4268 1072.05 31.8103 1072.05 23.4124C1072.05 15.0144 1078.61 8.14343 1086.93 8.14343C1095.25 8.14343 1101.81 15.0144 1101.81 23.4124ZM1107.1 196.715V48.3516H1095.5L1101.3 37.6634C1104.83 34.1006 1106.85 29.011 1106.85 23.4124C1106.85 12.2151 1098.28 3.05378 1086.93 3.05378C1077.09 3.05378 1069.53 9.9248 1067.51 18.8317L1060.45 31.8103L1059.95 33.0827C1058.43 35.882 1057.68 39.1903 1057.68 42.4985C1057.68 47.5882 1059.19 51.9144 1062.22 55.2226L1055.41 68.2012V215.037H1096.26L1105.84 196.715H1107.1Z" fill="black"/>
<path d="M1238.42 223.69V48.3516H1162.52C1149.91 48.3516 1139.06 56.495 1136.04 68.2012L1128.73 82.1977C1126.96 85.7605 1125.95 89.8322 1125.95 94.1584V192.134C1125.95 203.586 1130.49 210.966 1138.06 213.765L1131.5 226.489L1131.75 265.679H1204.63C1213.7 265.679 1221.02 261.862 1224.8 254.737L1232.11 240.995C1236.15 236.923 1238.42 231.07 1238.42 223.69ZM1233.37 223.69C1233.37 235.905 1225.3 242.267 1214.71 242.267H1146.12L1145.87 211.729H1200.84V191.625H1156.21C1146.38 191.625 1140.33 185.263 1140.33 173.048V75.0722C1140.33 62.8571 1150.41 53.4412 1162.52 53.4412H1233.37V223.69ZM1201.6 85.7605H1172.35V162.105H1201.6V85.7605ZM1187.23 109.173V157.015H1177.39V109.173H1187.23Z" fill="black"/>
<path d="M1329.93 191.625V84.4881H1300.18V191.625H1268.41V53.4412H1339.77C1351.87 53.4412 1361.96 62.8571 1361.96 75.0722V191.625H1329.93ZM1367 196.715V75.0722C1367 59.8033 1354.64 48.3516 1339.77 48.3516H1263.36V50.6419L1254.03 68.2012V215.037H1294.38L1303.96 196.715H1305.22V107.9H1315.56V215.037H1356.16L1365.74 196.715H1367Z" fill="black"/>
</svg>
