<svg width="1466" height="161" viewBox="0 0 1466 161" fill="none" xmlns="http://www.w3.org/2000/svg">
<path d="M1466 0V66.4598C1406.08 66.8591 1375.56 94.3721 1348.64 118.711C1323.51 141.411 1301.8 161 1257.85 161C1213.9 161 1192.19 141.411 1167.06 118.711C1139.96 94.2039 1109.19 66.4388 1048.47 66.4388C987.748 66.4388 957.012 94.2039 929.882 118.711C904.754 141.411 883.071 161 839.091 161C795.111 161 773.428 141.411 748.301 118.711C721.197 94.2039 690.462 66.4388 629.739 66.4388C569.016 66.4388 538.254 94.2039 511.124 118.711C485.996 141.411 464.313 161 420.333 161C376.353 161 354.671 141.411 329.543 118.711C302.573 94.2039 271.838 66.4388 211.115 66.4388C150.392 66.4388 119.657 94.2039 92.5262 118.711C67.5855 141.243 43.3124 160.517 0 160.79V0H1466Z" fill="white"/>
</svg>
