<svg width="1466" height="161" viewBox="0 0 1466 161" fill="none" xmlns="http://www.w3.org/2000/svg">
<path d="M1466 0V161H0V94.5972C59.895 94.1983 90.4167 66.7177 117.494 42.4071C142.461 19.734 164.197 0.167949 208.124 0.167949C252.051 0.167949 273.76 19.734 298.914 42.4071C326.045 66.8856 356.78 94.6182 417.53 94.6182C478.279 94.6182 508.988 66.8856 536.118 42.4071C561.219 19.734 582.902 0.167949 626.909 0.167949C670.915 0.167949 692.545 19.734 717.699 42.4071C744.829 66.8856 775.538 94.6182 836.288 94.6182C897.037 94.6182 927.772 66.8856 954.876 42.4071C980.004 19.734 1001.55 0.167949 1045.53 0.167949C1089.51 0.167949 1111.17 19.734 1136.32 42.4071C1163.45 66.8856 1194.16 94.6182 1254.91 94.6182C1315.66 94.6182 1346.37 66.8856 1373.47 42.4071C1398.39 19.9019 1422.66 0.272917 1466 0Z" fill="white"/>
</svg>
